<svg width="16" height="17" viewBox="0 0 16 17" fill="none" xmlns="http://www.w3.org/2000/svg">
<path fill-rule="evenodd" clip-rule="evenodd" d="M7.85714 6.41671C6.7723 6.41671 5.89286 7.29615 5.89286 8.381C5.89286 9.46584 6.7723 10.3453 7.85714 10.3453C8.94199 10.3453 9.82143 9.46584 9.82143 8.381C9.82143 7.29615 8.94199 6.41671 7.85714 6.41671ZM4.91071 8.381C4.91071 6.75373 6.22987 5.43457 7.85714 5.43457C9.48441 5.43457 10.8036 6.75373 10.8036 8.381C10.8036 10.0083 9.48441 11.3274 7.85714 11.3274C6.22987 11.3274 4.91071 10.0083 4.91071 8.381Z" fill="#DEDDDD"/>
<path fill-rule="evenodd" clip-rule="evenodd" d="M5.15625 3.22433C3.80019 3.22433 2.70089 4.32363 2.70089 5.67969V11.0815C2.70089 12.4375 3.80019 13.5368 5.15625 13.5368H10.558C11.9141 13.5368 13.0134 12.4375 13.0134 11.0815V5.67969C13.0134 4.32363 11.9141 3.22433 10.558 3.22433H5.15625ZM1.71875 5.67969C1.71875 3.78121 3.25777 2.24219 5.15625 2.24219H10.558C12.4565 2.24219 13.9955 3.78121 13.9955 5.67969V11.0815C13.9955 12.98 12.4565 14.519 10.558 14.519H5.15625C3.25777 14.519 1.71875 12.98 1.71875 11.0815V5.67969Z" fill="#DEDDDD"/>
<path d="M11.0491 5.92536C11.4559 5.92536 11.7857 5.59557 11.7857 5.18876C11.7857 4.78194 11.4559 4.45215 11.0491 4.45215C10.6423 4.45215 10.3125 4.78194 10.3125 5.18876C10.3125 5.59557 10.6423 5.92536 11.0491 5.92536Z" fill="#DEDDDD"/>
</svg>
