<svg width="17" height="18" viewBox="0 0 17 18" fill="none" xmlns="http://www.w3.org/2000/svg">
<path d="M1.49637 16.9638C1.47493 16.9863 1.44547 16.9993 1.41446 17C1.38344 17.0007 1.35341 16.989 1.33099 16.9676L1.20412 16.8464C1.18169 16.8249 1.1687 16.7955 1.168 16.7645C1.1673 16.7334 1.17895 16.7034 1.20038 16.681L16.1509 1.03616C16.1723 1.01373 16.2018 1.00073 16.2328 1.00003C16.2638 0.999326 16.2939 1.01097 16.3163 1.0324L16.4431 1.15362C16.4656 1.17506 16.4786 1.20453 16.4793 1.23554C16.48 1.26656 16.4683 1.29658 16.4469 1.319L1.49637 16.9638Z" fill="#F8F5EF" fill-opacity="0.5" stroke="#F8F5EF" stroke-opacity="0.8" stroke-width="0.5" stroke-miterlimit="16"/>
<path d="M2.53103 10.2134C2.49593 10.25 2.44773 10.2711 2.39703 10.2722C2.34633 10.2733 2.29729 10.2541 2.26069 10.219L2.25419 10.2128C2.23606 10.1955 2.22154 10.1747 2.21145 10.1517C2.20135 10.1287 2.19588 10.1039 2.19535 10.0788C2.19483 10.0537 2.19925 10.0288 2.20838 10.0054C2.2175 9.98196 2.23114 9.96059 2.24852 9.94247L10.4754 1.36354C10.5105 1.32694 10.5587 1.30579 10.6094 1.30473C10.6601 1.30367 10.7092 1.32279 10.7458 1.35789L10.7523 1.3641C10.7704 1.38148 10.7849 1.40226 10.795 1.42525C10.8051 1.44825 10.8106 1.473 10.8111 1.4981C10.8116 1.52321 10.8072 1.54817 10.7981 1.57157C10.789 1.59497 10.7753 1.61634 10.7579 1.63446L2.53103 10.2134Z" fill="#F8F5EF" fill-opacity="0.5" stroke="#F8F5EF" stroke-opacity="0.8" stroke-width="0.5"/>
<path d="M1.37326 5.53531C1.35397 5.55528 1.33094 5.57126 1.30547 5.58234C1.28001 5.59341 1.25261 5.59936 1.22484 5.59985C1.19708 5.60033 1.16949 5.59534 1.14365 5.58516C1.11782 5.57499 1.09424 5.55982 1.07426 5.54053L1.06457 5.53117C1.04459 5.51188 1.02861 5.48885 1.01754 5.46338C1.00646 5.43792 1.00052 5.41051 1.00003 5.38275C0.999548 5.35498 1.00453 5.3274 1.01471 5.30156C1.02489 5.27572 1.04006 5.25214 1.05935 5.23217L4.12205 2.06066C4.14134 2.04069 4.16438 2.0247 4.18984 2.01363C4.21531 2.00256 4.2427 1.99661 4.27047 1.99613C4.29823 1.99564 4.32582 2.00063 4.35166 2.01081C4.3775 2.02099 4.40107 2.03615 4.42105 2.05544L4.43075 2.0648C4.45072 2.08409 4.4667 2.10713 4.47777 2.13259C4.48885 2.15806 4.4948 2.18545 4.49528 2.21322C4.49577 2.24098 4.49078 2.26857 4.4806 2.29441C4.47042 2.32024 4.45525 2.34382 4.43596 2.3638L1.37326 5.53531Z" fill="#F8F5EF" fill-opacity="0.5" stroke="#F8F5EF" stroke-opacity="0.8" stroke-width="0.5"/>
</svg>
