<svg width="1412" height="211" viewBox="0 0 1412 211" fill="none" xmlns="http://www.w3.org/2000/svg">
<path d="M1360.57 43.6299L1256.37 168.311C1252.28 173.218 1250.06 179.405 1250.06 185.763C1250.06 199.46 1261.15 210.554 1274.85 210.554H1404.27V173.474H1305.53C1303.01 173.474 1301.65 170.572 1303.27 168.652L1405.16 47.1716C1409.56 41.9232 1411.99 35.3094 1411.99 28.4822C1412.25 16.9187 1407.89 8.29948 1392.06 2.53906" fill="url(#paint0_linear_1_918)" fill-opacity="0.08"/>
<path d="M1374.05 1.99512H1263.33V38.8191H1346.79" fill="url(#paint1_linear_1_918)" fill-opacity="0.08"/>
<path d="M1020.79 1.99512H980.852V210.565H1020.79V1.99512Z" fill="url(#paint2_linear_1_918)" fill-opacity="0.08"/>
<path d="M329.078 210.56C314.784 210.56 301.3 207.829 288.627 202.325C275.997 196.82 264.903 189.353 255.473 179.923C246.043 170.493 238.576 159.442 233.071 146.769C227.567 134.138 224.836 120.569 224.836 106.062C224.836 91.5539 227.567 78.241 233.071 65.4828C238.576 52.7245 246.043 41.6303 255.473 32.2003C264.903 22.7703 275.954 15.3031 288.627 9.79871C301.3 4.29431 314.741 1.56348 329.078 1.56348C343.415 1.56348 357.112 4.33698 369.785 9.79871C382.415 15.3031 393.467 22.7703 402.939 32.2003C412.369 41.6303 419.879 52.7245 425.341 65.4828C430.845 78.241 433.576 91.7673 433.576 106.062C433.576 120.356 430.803 134.096 425.341 146.769C419.837 159.442 412.369 170.493 402.939 179.923C393.509 189.353 382.458 196.82 369.785 202.325C357.155 207.829 343.543 210.56 329.078 210.56ZM329.206 37.534C320.075 37.534 311.498 39.4115 303.562 43.1665C295.582 46.9214 288.627 51.9138 282.696 58.1436C276.765 64.3734 272.029 71.6699 268.572 79.9905C265.116 88.3537 263.367 97.0157 263.367 105.976C263.367 114.937 265.116 123.855 268.572 132.09C272.071 140.325 276.765 147.622 282.696 153.937C288.627 160.252 295.582 165.287 303.562 169.085C311.541 172.84 320.075 174.717 329.206 174.717C338.337 174.717 346.914 172.84 354.851 169.085C362.83 165.33 369.742 160.295 375.716 153.937C381.647 147.622 386.384 140.325 389.84 132.09C393.339 123.855 395.045 115.15 395.045 105.976C395.045 96.8023 393.296 88.3111 389.84 79.9905C386.341 71.6699 381.647 64.3734 375.716 58.1436C369.785 51.9138 362.83 46.9214 354.851 43.1665C346.871 39.4115 338.337 37.534 329.206 37.534Z" fill="url(#paint3_linear_1_918)" fill-opacity="0.08"/>
<path d="M1222.19 37.0773H1162.59V210.572H1122.65V37.0773H1062.7V1.7041H1222.19V37.0773Z" fill="url(#paint4_linear_1_918)" fill-opacity="0.08"/>
<path d="M618.708 126.205C625.365 119.634 630.4 111.996 633.813 103.249C637.227 94.5016 638.934 84.9863 638.934 74.7029C638.934 64.4195 636.971 54.7762 633.088 45.7302C629.205 36.7269 623.914 28.8756 617.258 22.2191C610.601 15.5627 602.75 10.2716 593.704 6.3887C584.658 2.50576 575.015 0.542969 564.774 0.542969H471.754V209.369H511.693V147.156V111.186V35.8735H560.464C566.737 35.8735 572.241 37.0255 577.02 39.287C581.756 41.5912 585.767 44.5354 589.01 48.1197C592.253 51.7466 594.728 55.8856 596.435 60.5366C598.142 65.1876 598.995 69.924 598.995 74.6603C598.995 79.3966 598.312 83.9623 596.99 88.3572C595.667 92.7522 593.619 96.6351 590.845 100.049C588.072 103.462 584.53 106.193 580.135 108.156C575.74 110.162 570.62 111.143 564.731 111.143H532.558V147.113H532.644C536.996 224.303 629.547 209.326 629.547 209.326V169.686C629.547 169.686 586.578 175.19 578.172 145.492C583.549 144.553 588.626 143.273 593.363 141.566C603.518 137.854 611.967 132.734 618.623 126.163" fill="url(#paint5_linear_1_918)" fill-opacity="0.08"/>
<path d="M142.688 1.98386V91.8036H75.5254C75.5254 91.8036 37.5067 89.7555 20.0974 106.269C6.44313 119.198 0.725389 137.076 0.170683 151.669C0.128013 151.669 0.0853395 151.669 0 151.712L0 210.511H39.9389V153.845H40.0669C40.0669 153.205 39.9815 152.651 39.9815 151.968C39.9815 127.134 60.2497 127.134 69.381 127.134H142.688V210.468H182.626V1.89844H142.688V1.98386Z" fill="url(#paint6_linear_1_918)" fill-opacity="0.08"/>
<path d="M39.9389 81.0621V1.99512H0L0 106.152C2.85887 96.7219 18.988 82.4276 39.9389 81.0621Z" fill="url(#paint7_linear_1_918)" fill-opacity="0.08"/>
<path d="M899.305 1.95215L849.765 125.481C847.632 130.559 842.938 130.559 840.805 125.481L791.265 1.99486H746.035L834.618 204.292C838.927 212.698 850.96 212.698 855.27 204.292L943.895 1.99486H899.305V1.95215Z" fill="url(#paint8_linear_1_918)" fill-opacity="0.08"/>
<path d="M828.826 55.4173L852.251 1.95215H807.704L807.576 2.25087L828.826 55.4173Z" fill="url(#paint9_linear_1_918)" fill-opacity="0.08"/>
<path d="M770.351 94.8868L758.105 125.438C755.929 130.516 751.278 130.516 749.145 125.438L699.605 1.95215H654.375L742.957 204.249C747.267 212.655 759.3 212.655 763.61 204.249L790.918 141.909L770.351 94.9295V94.8868Z" fill="url(#paint10_linear_1_918)" fill-opacity="0.08"/>
<defs>
<linearGradient id="paint0_linear_1_918" x1="1331.03" y1="2.53906" x2="1331.03" y2="210.554" gradientUnits="userSpaceOnUse">
<stop stop-color="#F8F5EF"/>
<stop offset="1" stop-color="#F8F5EF" stop-opacity="0"/>
</linearGradient>
<linearGradient id="paint1_linear_1_918" x1="1318.69" y1="1.99512" x2="1318.69" y2="38.8191" gradientUnits="userSpaceOnUse">
<stop stop-color="#F8F5EF"/>
<stop offset="1" stop-color="#F8F5EF" stop-opacity="0"/>
</linearGradient>
<linearGradient id="paint2_linear_1_918" x1="1000.82" y1="1.99512" x2="1000.82" y2="210.565" gradientUnits="userSpaceOnUse">
<stop stop-color="#F8F5EF"/>
<stop offset="1" stop-color="#F8F5EF" stop-opacity="0"/>
</linearGradient>
<linearGradient id="paint3_linear_1_918" x1="329.206" y1="1.56348" x2="329.206" y2="210.56" gradientUnits="userSpaceOnUse">
<stop stop-color="#F8F5EF"/>
<stop offset="1" stop-color="#F8F5EF" stop-opacity="0"/>
</linearGradient>
<linearGradient id="paint4_linear_1_918" x1="1142.45" y1="1.7041" x2="1142.45" y2="210.572" gradientUnits="userSpaceOnUse">
<stop stop-color="#F8F5EF"/>
<stop offset="1" stop-color="#F8F5EF" stop-opacity="0"/>
</linearGradient>
<linearGradient id="paint5_linear_1_918" x1="555.344" y1="0.542969" x2="555.344" y2="210.497" gradientUnits="userSpaceOnUse">
<stop stop-color="#F8F5EF"/>
<stop offset="1" stop-color="#F8F5EF" stop-opacity="0"/>
</linearGradient>
<linearGradient id="paint6_linear_1_918" x1="91.3132" y1="1.89844" x2="91.3132" y2="210.511" gradientUnits="userSpaceOnUse">
<stop stop-color="#F8F5EF"/>
<stop offset="1" stop-color="#F8F5EF" stop-opacity="0"/>
</linearGradient>
<linearGradient id="paint7_linear_1_918" x1="19.9694" y1="1.99512" x2="19.9694" y2="106.152" gradientUnits="userSpaceOnUse">
<stop stop-color="#F8F5EF"/>
<stop offset="1" stop-color="#F8F5EF" stop-opacity="0"/>
</linearGradient>
<linearGradient id="paint8_linear_1_918" x1="844.965" y1="1.95215" x2="844.965" y2="210.597" gradientUnits="userSpaceOnUse">
<stop stop-color="#F8F5EF"/>
<stop offset="1" stop-color="#F8F5EF" stop-opacity="0"/>
</linearGradient>
<linearGradient id="paint9_linear_1_918" x1="829.914" y1="1.95215" x2="829.914" y2="55.4173" gradientUnits="userSpaceOnUse">
<stop stop-color="#F8F5EF"/>
<stop offset="1" stop-color="#F8F5EF" stop-opacity="0"/>
</linearGradient>
<linearGradient id="paint10_linear_1_918" x1="722.647" y1="1.95215" x2="722.647" y2="210.554" gradientUnits="userSpaceOnUse">
<stop stop-color="#F8F5EF"/>
<stop offset="1" stop-color="#F8F5EF" stop-opacity="0"/>
</linearGradient>
</defs>
</svg>
