<svg width="45" height="42" viewBox="0 0 45 42" fill="none" xmlns="http://www.w3.org/2000/svg">
<path d="M15.0775 42L18.5414 33.3691C18.6923 33.0122 19.0181 33.0146 19.1666 33.3691L22.6305 41.9976H25.7901L19.6002 27.8619C19.3007 27.2726 18.4575 27.2726 18.1581 27.8619L11.9634 41.9976H15.0775V42Z" fill="#B47950"/>
<path d="M20.0026 38.2637L18.3665 42.0006H21.4806L21.4902 41.9791L20.0026 38.2637Z" fill="#B47950"/>
<path d="M24.0874 35.5035L24.945 33.3691C25.0959 33.0122 25.4217 33.0146 25.5702 33.3691L29.0317 41.9976H32.1914L26.0014 27.8619C25.6996 27.2726 24.8588 27.2726 24.5593 27.8619L22.6501 32.2193L24.0874 35.5035Z" fill="#B47950"/>
<path d="M0.960587 21.573L10.2383 22.1982C10.624 22.2318 10.7222 22.5408 10.4299 22.7947L3.29379 28.7547L4.27114 31.7586L15.803 21.5036C16.2701 21.0364 16.009 20.2363 15.3574 20.1309L0 18.6074L0.962983 21.5706L0.960587 21.573Z" fill="#B47950"/>
<path d="M6.03568 25.1017L1.97534 24.6992L2.93833 27.6624L2.96228 27.6648L6.03568 25.1017Z" fill="#B47950"/>
<path d="M9.92209 28.135L12.217 28.2907C12.6026 28.3243 12.7009 28.6333 12.4086 28.8872L5.27246 34.8472L6.24982 37.8511L17.7817 27.596C18.2488 27.1289 17.9877 26.3288 17.3361 26.2234L12.6026 25.7539L9.92449 28.135H9.92209Z" fill="#B47950"/>
<path d="M16.0262 1.83494L18.2971 10.8515C18.3834 11.2276 18.1199 11.4193 17.7893 11.218L9.91535 6.27137L7.35938 8.12787L20.6759 15.9252C21.2651 16.2246 21.9455 15.7311 21.8425 15.0772L18.5439 0L16.0238 1.83015L16.0262 1.83494Z" fill="#B47950"/>
<path d="M14.2357 7.75366L13.3638 3.76758L10.8438 5.60012L10.8509 5.62168L14.2357 7.75366Z" fill="#B47950"/>
<path d="M12.5543 12.3871L13.1172 14.6173C13.2035 14.9934 12.9399 15.185 12.6094 14.9838L4.73543 10.0371L2.17944 11.8936L15.4959 19.6909C16.0852 19.9903 16.7655 19.4969 16.6625 18.8429L15.6468 14.1957L12.5543 12.3847V12.3871Z" fill="#B47950"/>
<path d="M39.4536 10.0629L31.5797 15.0096C31.2491 15.2084 30.9856 15.0168 31.0742 14.6407L33.3452 5.62408L30.7892 3.76758L27.4882 18.8423C27.3852 19.4963 28.0655 19.9898 28.6548 19.6903L41.9737 11.8954L39.4536 10.0653V10.0629Z" fill="#B47950"/>
<path d="M33.2703 10.1934L36.7916 8.13093L34.2716 6.30078L34.2524 6.31276L33.2703 10.1934Z" fill="#B47950"/>
<path d="M28.347 10.0218L26.3995 11.2459C26.0689 11.4447 25.8054 11.2531 25.8941 10.877L28.165 1.8604L25.609 0.00390625L22.308 15.0787C22.205 15.7326 22.8853 16.2261 23.4746 15.9267L27.5805 13.524L28.347 10.0242V10.0218Z" fill="#B47950"/>
<path d="M38.8663 34.8887L31.7277 28.9288C31.4355 28.6748 31.5385 28.3658 31.9217 28.3347L41.1994 27.7071L42.1768 24.7031L26.8194 26.2219C26.1678 26.3249 25.9067 27.125 26.3738 27.5945L37.9033 37.8543L38.8663 34.8911V34.8887Z" fill="#B47950"/>
<path d="M36.834 29.0471L39.8834 31.7588L40.8464 28.7956L40.8296 28.7812L36.834 29.0471Z" fill="#B47950"/>
<path d="M35.4727 24.3121L33.7072 22.8389C33.415 22.585 33.518 22.276 33.9012 22.2448L43.1789 21.6196L44.1563 18.6133L28.7989 20.132C28.1473 20.2374 27.8862 21.0351 28.3533 21.5046L31.9082 24.6667L35.4751 24.3145L35.4727 24.3121Z" fill="#B47950"/>
</svg>
