<svg width="130.614258" height="878.000000" viewBox="0 0 130.614 878" fill="none" xmlns="http://www.w3.org/2000/svg" xmlns:xlink="http://www.w3.org/1999/xlink">
	<defs/>
	<path id="Vector" d="M26.7917 31.9785L104.32 96.7695C107.371 99.3184 111.219 100.697 115.172 100.697C123.689 100.697 130.587 93.7988 130.587 85.2812L130.587 4.80859L107.531 4.80859L107.531 66.2051C107.531 67.7695 105.726 68.6191 104.532 67.6113L28.9941 4.25195C25.7305 1.51758 21.6179 0.00585938 17.3728 0.00585938C10.1824 -0.152344 4.82275 2.55273 1.24097 12.3965L26.7917 31.9785Z" fill="#131719" fill-opacity="1.000000" fill-rule="evenodd"/>
	<path id="Vector" d="M0.904053 23.5957L0.904053 92.4473L23.8018 92.4473L23.8018 40.5488L0.904053 23.5957Z" fill="#131719" fill-opacity="1.000000" fill-rule="evenodd"/>
	<path id="Vector" d="M0.904053 268.092L0.904053 243.258L130.595 243.258L130.595 268.092L0.904053 268.092Z" fill="#131719" fill-opacity="1.000000" fill-rule="evenodd"/>
	<path id="Vector" d="M130.591 673.377C130.591 682.264 128.893 690.648 125.47 698.529C122.048 706.383 117.404 713.281 111.541 719.145C105.677 725.008 98.8049 729.652 90.9248 733.074C83.071 736.498 74.6338 738.195 65.6125 738.195C56.5916 738.195 48.3135 736.498 40.3801 733.074C32.447 729.652 25.5483 725.008 19.6846 719.145C13.821 713.281 9.17773 706.41 5.75513 698.529C2.33228 690.648 0.634277 682.291 0.634277 673.377C0.634277 664.461 2.35889 655.943 5.75513 648.064C9.17773 640.211 13.821 633.338 19.6846 627.447C25.5483 621.584 32.447 616.914 40.3801 613.518C48.3135 610.096 56.7241 608.398 65.6125 608.398C74.501 608.398 83.0447 610.123 90.9248 613.518C98.8049 616.941 105.677 621.584 111.541 627.447C117.404 633.312 122.048 640.184 125.47 648.064C128.893 655.918 130.591 664.381 130.591 673.377ZM23.0012 673.297C23.0012 678.975 24.1687 684.307 26.5037 689.242C28.8384 694.205 31.9429 698.529 35.8167 702.217C39.6904 705.904 44.2273 708.85 49.4014 711C54.6016 713.148 59.9878 714.236 65.5596 714.236C71.1313 714.236 76.6768 713.148 81.7976 711C86.9185 708.824 91.4553 705.904 95.3823 702.217C99.3091 698.529 102.44 694.205 104.801 689.242C107.136 684.281 108.304 678.975 108.304 673.297C108.304 667.619 107.136 662.285 104.801 657.35C102.467 652.389 99.3357 648.09 95.3823 644.375C91.4553 640.688 86.9185 637.742 81.7976 635.594C76.6768 633.418 71.2642 632.357 65.5596 632.357C59.855 632.357 54.5752 633.445 49.4014 635.594C44.2273 637.77 39.6904 640.688 35.8167 644.375C31.9429 648.064 28.8384 652.389 26.5037 657.35C24.1687 662.312 23.0012 667.619 23.0012 673.297Z" fill="#131719" fill-opacity="1.000000" fill-rule="evenodd"/>
	<path id="Vector" d="M22.7173 118.023L22.7173 155.09L130.599 155.09L130.599 179.926L22.7173 179.926L22.7173 217.203L0.72168 217.203L0.72168 118.023L22.7173 118.023Z" fill="#131719" fill-opacity="1.000000" fill-rule="evenodd"/>
	<path id="Vector" d="M78.1384 493.279C74.0525 489.141 69.3032 486.01 63.864 483.887C58.4248 481.766 52.5081 480.703 46.1135 480.703C39.7192 480.703 33.7229 481.924 28.0981 484.338C22.4998 486.752 17.6177 490.043 13.4785 494.182C9.33936 498.32 6.04932 503.203 3.63501 508.828C1.22046 514.453 0 520.449 0 526.816L0 584.658L129.851 584.658L129.851 559.824L91.166 559.824L68.7991 559.824L21.969 559.824L21.969 529.496C21.969 525.596 22.6853 522.174 24.0916 519.203C25.5244 516.258 27.3552 513.764 29.5837 511.746C31.8391 509.73 34.4128 508.191 37.3049 507.129C40.197 506.068 43.1421 505.537 46.0872 505.537C49.0322 505.537 51.8713 505.963 54.604 506.785C57.3369 507.607 59.7515 508.881 61.874 510.605C63.9966 512.33 65.6948 514.533 66.9153 517.266C68.1624 519.998 68.7725 523.182 68.7725 526.844L68.7725 546.85L91.1394 546.85L91.1394 546.797C139.137 544.09 129.824 486.541 129.824 486.541L105.175 486.541C105.175 486.541 108.598 513.26 90.1313 518.486C89.5476 515.143 88.7517 511.984 87.6902 509.041C85.3818 502.725 82.198 497.473 78.1121 493.332L78.1384 493.279Z" fill="#131719" fill-opacity="1.000000" fill-rule="evenodd"/>
	<path id="Vector" d="M0.897705 789.275L56.7488 789.275L56.7488 831.037C56.7488 831.037 55.4751 854.678 65.7434 865.504C73.7827 873.994 84.8999 877.549 93.9741 877.895C93.9741 877.92 93.9741 877.947 94.0005 878L130.562 878L130.562 853.166L95.3271 853.166L95.3271 853.086C94.9292 853.086 94.5842 853.139 94.1597 853.139C78.7178 853.139 78.7178 840.535 78.7178 834.857L78.7178 789.275L130.536 789.275L130.536 764.439L0.844482 764.439L0.844482 789.275L0.897705 789.275Z" fill="#131719" fill-opacity="1.000000" fill-rule="evenodd"/>
	<path id="Vector" d="M50.0691 853.166L0.904053 853.166L0.904053 878L65.6702 878C59.8064 876.223 50.918 866.193 50.0691 853.166Z" fill="#131719" fill-opacity="1.000000" fill-rule="evenodd"/>
	<path id="Vector" d="M0.876221 318.799L77.6882 349.604C80.8457 350.93 80.8457 353.848 77.6882 355.174L0.902832 385.979L0.902832 414.104L126.694 359.021C131.921 356.342 131.921 348.859 126.694 346.18L0.902832 291.072L0.902832 318.799L0.876221 318.799Z" fill="#131719" fill-opacity="1.000000" fill-rule="evenodd"/>
	<path id="Vector" d="M34.1216 362.627L0.876221 348.061L0.876221 375.76L1.06201 375.84L34.1216 362.627Z" fill="#131719" fill-opacity="1.000000" fill-rule="evenodd"/>
	<path id="Vector" d="M58.6643 398.982L77.6616 406.598C80.8191 407.949 80.8191 410.842 77.6616 412.168L0.876221 442.973L0.876221 471.098L126.667 416.016C131.894 413.336 131.894 405.854 126.667 403.174L87.9033 386.193L58.6909 398.982L58.6643 398.982Z" fill="#131719" fill-opacity="1.000000" fill-rule="evenodd"/>
</svg>
