<?xml version="1.0" encoding="utf-8"?><svg width="17" height="18" fill="none" xmlns="http://www.w3.org/2000/svg" viewBox="0 0 17 18"><path d="M1.496 16.964a.117.117 0 01-.165.004l-.127-.122a.117.117 0 01-.004-.165L16.15 1.036a.117.117 0 01.166-.004l.127.122a.117.117 0 01.004.165L1.497 16.964z" fill="#F8F5EF" fill-opacity=".5" stroke="#F8F5EF" stroke-opacity=".8" stroke-width=".5" stroke-miterlimit="16"/><path d="M2.531 10.213a.191.191 0 01-.27.006l-.007-.006a.19.19 0 01-.046-.208.19.19 0 01.04-.063l8.227-8.578a.191.191 0 01.27-.006l.007.006a.192.192 0 01.006.27l-8.227 8.58zM1.373 5.535a.212.212 0 01-.299.006l-.01-.01a.211.211 0 01-.005-.299l3.063-3.171a.212.212 0 01.3-.006l.009.01a.212.212 0 01.005.299L1.373 5.535z" fill="#F8F5EF" fill-opacity=".5" stroke="#F8F5EF" stroke-opacity=".8" stroke-width=".5"/></svg>