<?xml version="1.0" encoding="utf-8"?><svg width="1412" height="211" fill="none" xmlns="http://www.w3.org/2000/svg" viewBox="0 0 1412 211"><path d="M1360.57 43.63l-104.2 124.681a27.266 27.266 0 00-6.31 17.452c0 13.697 11.09 24.791 24.79 24.791h129.42v-37.08h-98.74c-2.52 0-3.88-2.902-2.26-4.822l101.89-121.48c4.4-5.249 6.83-11.863 6.83-18.69.26-11.563-4.1-20.183-19.93-25.943" fill="url(#hpaint0_linear_1_918)" fill-opacity=".08"/><path d="M1374.05 1.995h-110.72V38.82h83.46" fill="url(#hpaint1_linear_1_918)" fill-opacity=".08"/><path d="M1020.79 1.995h-39.938v208.57h39.938V1.995z" fill="url(#hpaint2_linear_1_918)" fill-opacity=".08"/><path d="M329.078 210.56c-14.294 0-27.778-2.731-40.451-8.235-12.63-5.505-23.724-12.972-33.154-22.402-9.43-9.43-16.897-20.481-22.402-33.154-5.504-12.631-8.235-26.2-8.235-40.707 0-14.508 2.731-27.821 8.235-40.58 5.505-12.758 12.972-23.852 22.402-33.282 9.43-9.43 20.481-16.897 33.154-22.401 12.673-5.505 26.114-8.236 40.451-8.236s28.034 2.774 40.707 8.236c12.63 5.504 23.682 12.971 33.154 22.401 9.43 9.43 16.94 20.524 22.402 33.283 5.504 12.758 8.235 26.284 8.235 40.579 0 14.294-2.773 28.034-8.235 40.707-5.504 12.673-12.972 23.724-22.402 33.154-9.43 9.43-20.481 16.897-33.154 22.402-12.63 5.504-26.242 8.235-40.707 8.235zm.128-173.026c-9.131 0-17.708 1.877-25.644 5.633-7.98 3.754-14.935 8.747-20.866 14.977-5.931 6.23-10.667 13.526-14.124 21.846-3.456 8.364-5.205 17.026-5.205 25.986 0 8.961 1.749 17.879 5.205 26.114 3.499 8.235 8.193 15.532 14.124 21.847 5.931 6.315 12.886 11.35 20.866 15.148 7.979 3.755 16.513 5.632 25.644 5.632 9.131 0 17.708-1.877 25.645-5.632 7.979-3.755 14.891-8.79 20.865-15.148 5.931-6.315 10.668-13.612 14.124-21.847 3.499-8.235 5.205-16.94 5.205-26.114s-1.749-17.665-5.205-25.986c-3.499-8.32-8.193-15.617-14.124-21.846-5.931-6.23-12.886-11.223-20.865-14.977-7.98-3.756-16.514-5.633-25.645-5.633z" fill="url(#hpaint3_linear_1_918)" fill-opacity=".08"/><path d="M1222.19 37.077h-59.6v173.495h-39.94V37.077h-59.95V1.704h159.49v35.373z" fill="url(#hpaint4_linear_1_918)" fill-opacity=".08"/><path d="M618.708 126.205c6.657-6.571 11.692-14.209 15.105-22.956 3.414-8.747 5.121-18.263 5.121-28.546 0-10.284-1.963-19.927-5.846-28.973-3.883-9.003-9.174-16.854-15.83-23.51-6.657-6.657-14.508-11.948-23.554-15.831-9.046-3.883-18.689-5.846-28.93-5.846h-93.02v208.826h39.939V35.873h48.771c6.273 0 11.777 1.153 16.556 3.414 4.736 2.304 8.747 5.248 11.99 8.833 3.243 3.627 5.718 7.766 7.425 12.417 1.707 4.65 2.56 9.387 2.56 14.123 0 4.737-.683 9.302-2.005 13.697-1.323 4.395-3.371 8.278-6.145 11.692-2.773 3.413-6.315 6.144-10.71 8.107-4.395 2.006-9.515 2.987-15.404 2.987h-32.173v35.97h.086c4.352 77.19 96.903 62.213 96.903 62.213v-39.64s-42.969 5.504-51.375-24.194c5.377-.939 10.454-2.219 15.191-3.926 10.155-3.712 18.604-8.832 25.26-15.403" fill="url(#hpaint5_linear_1_918)" fill-opacity=".08"/><path d="M142.688 1.984v89.82H75.525s-38.018-2.049-55.428 14.465C6.443 119.198.725 137.076.171 151.669a.32.32 0 00-.171.043v58.799h39.939v-56.666h.128c0-.64-.086-1.194-.086-1.877 0-24.834 20.269-24.834 29.4-24.834h73.307v83.334h39.938V1.898h-39.938v.086z" fill="url(#hpaint6_linear_1_918)" fill-opacity=".08"/><path d="M39.939 81.062V1.995H0v104.157c2.859-9.43 18.988-23.724 39.939-25.09z" fill="url(#hpaint7_linear_1_918)" fill-opacity=".08"/><path d="M899.305 1.952l-49.54 123.529c-2.133 5.078-6.827 5.078-8.96 0L791.265 1.995h-45.23l88.583 202.297c4.309 8.406 16.342 8.406 20.652 0L943.895 1.995h-44.59v-.043z" fill="url(#hpaint8_linear_1_918)" fill-opacity=".08"/><path d="M828.826 55.417l23.425-53.465h-44.547l-.128.299 21.25 53.166z" fill="url(#hpaint9_linear_1_918)" fill-opacity=".08"/><path d="M770.351 94.887l-12.246 30.551c-2.176 5.078-6.827 5.078-8.96 0L699.605 1.952h-45.23l88.582 202.297c4.31 8.406 16.343 8.406 20.653 0l27.308-62.34-20.567-46.98v-.042z" fill="url(#hpaint10_linear_1_918)" fill-opacity=".08"/><defs><linearGradient id="hpaint0_linear_1_918" x1="1331.03" y1="2.539" x2="1331.03" y2="210.554" gradientUnits="userSpaceOnUse"><stop stop-color="#F8F5EF"/><stop offset="1" stop-color="#F8F5EF" stop-opacity="0"/></linearGradient><linearGradient id="hpaint1_linear_1_918" x1="1318.69" y1="1.995" x2="1318.69" y2="38.819" gradientUnits="userSpaceOnUse"><stop stop-color="#F8F5EF"/><stop offset="1" stop-color="#F8F5EF" stop-opacity="0"/></linearGradient><linearGradient id="hpaint2_linear_1_918" x1="1000.82" y1="1.995" x2="1000.82" y2="210.565" gradientUnits="userSpaceOnUse"><stop stop-color="#F8F5EF"/><stop offset="1" stop-color="#F8F5EF" stop-opacity="0"/></linearGradient><linearGradient id="hpaint3_linear_1_918" x1="329.206" y1="1.563" x2="329.206" y2="210.56" gradientUnits="userSpaceOnUse"><stop stop-color="#F8F5EF"/><stop offset="1" stop-color="#F8F5EF" stop-opacity="0"/></linearGradient><linearGradient id="hpaint4_linear_1_918" x1="1142.45" y1="1.704" x2="1142.45" y2="210.572" gradientUnits="userSpaceOnUse"><stop stop-color="#F8F5EF"/><stop offset="1" stop-color="#F8F5EF" stop-opacity="0"/></linearGradient><linearGradient id="hpaint5_linear_1_918" x1="555.344" y1=".543" x2="555.344" y2="210.497" gradientUnits="userSpaceOnUse"><stop stop-color="#F8F5EF"/><stop offset="1" stop-color="#F8F5EF" stop-opacity="0"/></linearGradient><linearGradient id="hpaint6_linear_1_918" x1="91.313" y1="1.898" x2="91.313" y2="210.511" gradientUnits="userSpaceOnUse"><stop stop-color="#F8F5EF"/><stop offset="1" stop-color="#F8F5EF" stop-opacity="0"/></linearGradient><linearGradient id="hpaint7_linear_1_918" x1="19.969" y1="1.995" x2="19.969" y2="106.152" gradientUnits="userSpaceOnUse"><stop stop-color="#F8F5EF"/><stop offset="1" stop-color="#F8F5EF" stop-opacity="0"/></linearGradient><linearGradient id="hpaint8_linear_1_918" x1="844.965" y1="1.952" x2="844.965" y2="210.597" gradientUnits="userSpaceOnUse"><stop stop-color="#F8F5EF"/><stop offset="1" stop-color="#F8F5EF" stop-opacity="0"/></linearGradient><linearGradient id="hpaint9_linear_1_918" x1="829.914" y1="1.952" x2="829.914" y2="55.417" gradientUnits="userSpaceOnUse"><stop stop-color="#F8F5EF"/><stop offset="1" stop-color="#F8F5EF" stop-opacity="0"/></linearGradient><linearGradient id="hpaint10_linear_1_918" x1="722.647" y1="1.952" x2="722.647" y2="210.554" gradientUnits="userSpaceOnUse"><stop stop-color="#F8F5EF"/><stop offset="1" stop-color="#F8F5EF" stop-opacity="0"/></linearGradient></defs></svg>