<?xml version="1.0" encoding="utf-8"?><svg width="16" height="17" fill="none" xmlns="http://www.w3.org/2000/svg" viewBox="0 0 16 17"><path fill-rule="evenodd" clip-rule="evenodd" d="M7.857 6.417a1.964 1.964 0 100 3.928 1.964 1.964 0 000-3.928zM4.911 8.38a2.946 2.946 0 115.893 0 2.946 2.946 0 01-5.893 0z" fill="#DEDDDD"/><path fill-rule="evenodd" clip-rule="evenodd" d="M5.156 3.224A2.455 2.455 0 002.701 5.68v5.402c0 1.355 1.1 2.455 2.455 2.455h5.402c1.356 0 2.455-1.1 2.455-2.456V5.68c0-1.356-1.099-2.456-2.455-2.456H5.156zM1.72 5.68a3.437 3.437 0 013.437-3.438h5.402a3.437 3.437 0 013.438 3.438v5.402a3.437 3.437 0 01-3.438 3.437H5.156a3.437 3.437 0 01-3.437-3.438V5.68z" fill="#DEDDDD"/><path d="M11.05 5.925a.737.737 0 100-1.473.737.737 0 000 1.473z" fill="#DEDDDD"/></svg>