<?xml version="1.0" encoding="utf-8"?><svg width="45" height="42" fill="none" xmlns="http://www.w3.org/2000/svg" viewBox="0 0 45 42"><path d="M15.078 42l3.463-8.63c.151-.358.477-.355.626 0l3.463 8.628h3.16L19.6 27.862a.81.81 0 00-1.442 0l-6.195 14.136h3.115V42z" fill="#B47950"/><path d="M20.003 38.264L18.366 42h3.115l.01-.022-1.488-3.715zM24.087 35.504l.858-2.135c.15-.357.477-.354.625 0l3.462 8.629h3.16l-6.19-14.136a.81.81 0 00-1.443 0l-1.909 4.357 1.437 3.285zM.96 21.573l9.278.625c.386.034.484.343.192.597l-7.136 5.96.977 3.004 11.532-10.255a.811.811 0 00-.446-1.373L0 18.607l.963 2.964-.002.002z" fill="#B47950"/><path d="M6.036 25.102l-4.06-.403.962 2.963.024.003 3.074-2.563zM9.922 28.135l2.295.156c.386.033.484.342.192.596l-7.137 5.96.978 3.004 11.532-10.255a.81.81 0 00-.446-1.373l-4.733-.47-2.679 2.382h-.002zM16.026 1.835l2.271 9.017c.086.376-.177.567-.508.366L9.915 6.271 7.36 8.128l13.317 7.797a.81.81 0 001.167-.848L18.543 0l-2.52 1.83.003.005z" fill="#B47950"/><path d="M14.236 7.754l-.872-3.986-2.52 1.832.007.022 3.385 2.132zM12.554 12.387l.563 2.23c.086.376-.177.568-.508.367l-7.874-4.947-2.556 1.857 13.317 7.797a.81.81 0 001.167-.848l-1.016-4.647-3.093-1.811v.002zM39.454 10.063L31.58 15.01c-.33.198-.594.007-.506-.37l2.271-9.016-2.556-1.856-3.3 15.074a.81.81 0 001.166.848l13.319-7.795-2.52-1.83v-.002z" fill="#B47950"/><path d="M33.27 10.193l3.522-2.062-2.52-1.83-.02.012-.982 3.88zM28.347 10.022l-1.948 1.224c-.33.199-.594.007-.505-.369l2.271-9.017L25.609.004l-3.301 15.075a.81.81 0 001.167.848l4.105-2.403.767-3.5v-.002zM38.866 34.889l-7.138-5.96c-.293-.254-.19-.563.194-.594l9.277-.628.978-3.004-15.358 1.519a.81.81 0 00-.445 1.372l11.53 10.26.962-2.963v-.002z" fill="#B47950"/><path d="M36.834 29.047l3.05 2.712.962-2.963-.016-.015-3.996.266zM35.473 24.312l-1.766-1.473c-.292-.254-.189-.563.194-.594l9.278-.625.977-3.007L28.8 20.132a.81.81 0 00-.446 1.373l3.555 3.162 3.567-.353-.002-.002z" fill="#B47950"/></svg>