<?xml version="1.0" encoding="utf-8"?><svg width="130.614" height="878" fill="none" xmlns="http://www.w3.org/2000/svg" viewBox="0 0 130.614 878"><path d="M26.792 31.979l77.528 64.79a16.928 16.928 0 0010.852 3.928c8.517 0 15.415-6.898 15.415-15.416V4.81h-23.056v61.396c0 1.564-1.805 2.414-2.999 1.406L28.994 4.251A18.11 18.11 0 0017.373.007c-7.19-.158-12.55 2.547-16.132 12.39l25.55 19.582zM.904 23.596v68.851h22.898V40.55L.904 23.596zM.904 268.092v-24.834h129.691v24.834H.905zM130.591 673.377c0 8.887-1.698 17.271-5.121 25.152-3.422 7.854-8.066 14.752-13.929 20.616-5.864 5.863-12.736 10.507-20.616 13.929-7.854 3.424-16.291 5.121-25.313 5.121-9.02 0-17.298-1.697-25.232-5.121-7.933-3.422-14.832-8.066-20.695-13.929-5.864-5.864-10.507-12.735-13.93-20.616s-5.12-16.238-5.12-25.152c0-8.916 1.724-17.434 5.12-25.313 3.423-7.853 8.066-14.726 13.93-20.617 5.863-5.863 12.762-10.533 20.695-13.929 7.933-3.422 16.344-5.12 25.232-5.12 8.889 0 17.433 1.725 25.313 5.12 7.88 3.423 14.752 8.066 20.616 13.929 5.863 5.865 10.507 12.737 13.929 20.617 3.423 7.854 5.121 16.317 5.121 25.313zm-107.59-.08c0 5.678 1.168 11.01 3.503 15.945 2.334 4.963 5.439 9.287 9.313 12.975 3.873 3.687 8.41 6.633 13.584 8.783 5.2 2.148 10.587 3.236 16.159 3.236 5.571 0 11.117-1.088 16.238-3.236 5.12-2.176 9.657-5.096 13.584-8.783 3.927-3.688 7.058-8.012 9.419-12.975 2.335-4.961 3.503-10.267 3.503-15.945 0-5.678-1.168-11.012-3.503-15.947a42.335 42.335 0 00-9.419-12.975c-3.927-3.687-8.464-6.633-13.584-8.781-5.121-2.176-10.534-3.237-16.238-3.237-5.705 0-10.985 1.088-16.159 3.237-5.174 2.176-9.71 5.094-13.584 8.781-3.874 3.689-6.979 8.014-9.313 12.975C24.169 662.312 23 667.619 23 673.297zM22.717 118.023v37.067H130.6v24.836H22.717v37.277H.722v-99.18h21.995zM78.138 493.279a40.552 40.552 0 00-14.274-9.392c-5.44-2.121-11.356-3.184-17.75-3.184-6.395 0-12.391 1.221-18.016 3.635-5.598 2.414-10.48 5.705-14.62 9.844-4.139 4.138-7.429 9.021-9.843 14.646C1.22 514.453 0 520.449 0 526.816v57.842h129.851v-24.834H21.969v-30.328c0-3.9.716-7.322 2.123-10.293 1.432-2.945 3.263-5.439 5.492-7.457a23.765 23.765 0 017.72-4.617c2.893-1.061 5.838-1.592 8.783-1.592 2.945 0 5.784.426 8.517 1.248 2.733.822 5.148 2.096 7.27 3.82 2.123 1.725 3.82 3.928 5.041 6.661 1.247 2.732 1.857 5.916 1.857 9.578v20.006H91.14v-.053c47.998-2.707 38.685-60.256 38.685-60.256h-24.649s3.423 26.719-15.044 31.945c-.583-3.343-1.38-6.502-2.44-9.445-2.31-6.316-5.493-11.568-9.579-15.709l.026-.053zM.898 789.275h55.85v41.762s-1.273 23.641 8.995 34.467c8.04 8.49 19.157 12.045 28.231 12.391A.2.2 0 0094 878h36.562v-24.834H95.327v-.08c-.398 0-.743.053-1.167.053-15.442 0-15.442-12.604-15.442-18.282v-45.582h51.818v-24.836H.844v24.836h.054zM50.07 853.166H.903V878H65.67c-5.864-1.777-14.752-11.807-15.6-24.834zM.876 318.799l76.812 30.805c3.158 1.326 3.158 4.244 0 5.57L.903 385.979v28.125l125.791-55.083c5.227-2.679 5.227-10.162 0-12.841L.903 291.072v27.727H.876z" fill="#131719" fill-rule="evenodd"/><path d="M34.122 362.627L.876 348.061v27.699l.186.08 33.06-13.213zM58.664 398.982l18.998 7.616c3.157 1.351 3.157 4.244 0 5.57L.876 442.973v28.125l125.791-55.082c5.227-2.68 5.227-10.162 0-12.842l-38.764-16.981-29.212 12.789h-.027z" fill="#131719" fill-rule="evenodd"/></svg>