<?xml version="1.0" encoding="utf-8"?><svg viewBox="0 0 1412 878" xmlns="http://www.w3.org/2000/svg" xmlns:xlink="http://www.w3.org/1999/xlink"><style>:root>svg{display:none}:root>svg:target{display:block}</style><svg fill="none" viewBox="0 0 20 10" id="arrow--1" xmlns="http://www.w3.org/2000/svg"><path d="M19.445 9H.955h18.49z" fill="#0D0D0D"/><path d="M19.445 9H.955M.786 8.893L9.126 1" stroke="#F8F5EF" stroke-width="1.057" stroke-linecap="round" stroke-linejoin="round"/></svg><svg fill="none" viewBox="0 0 21 10" id="arrow--2" xmlns="http://www.w3.org/2000/svg"><path d="M1.128 9h18.49-18.49z" fill="#0D0D0D"/><path d="M1.128 9h18.49M19.786 8.893L11.446 1" stroke="#F8F5EF" stroke-width="1.057" stroke-linecap="round" stroke-linejoin="round"/></svg><svg fill="none" viewBox="0 0 12 7" id="arrow--btn" xmlns="http://www.w3.org/2000/svg"><path d="M1 5.782h9.571H1z" fill="#0D0D0D"/><path d="M1 5.782h9.571M10.66 5.72L6.341 1.218" stroke="#F8F5EF" stroke-linecap="round" stroke-linejoin="round"/></svg><svg fill="none" viewBox="0 0 12 6" id="arrow-tabs" xmlns="http://www.w3.org/2000/svg"><path d="M10.66 5.282H1.087h9.571z" fill="#0D0D0D"/><path d="M10.66 5.282H1.087M1 5.22L5.317.718" stroke="#F8F5EF" stroke-linecap="round" stroke-linejoin="round"/></svg><svg fill="none" viewBox="0 0 17 18" id="btn--icon" xmlns="http://www.w3.org/2000/svg"><path d="M1.496 16.964a.117.117 0 01-.165.004l-.127-.122a.117.117 0 01-.004-.165L16.15 1.036a.117.117 0 01.166-.004l.127.122a.117.117 0 01.004.165L1.497 16.964z" fill="#F8F5EF" fill-opacity=".5" stroke="#F8F5EF" stroke-opacity=".8" stroke-width=".5" stroke-miterlimit="16"/><path d="M2.531 10.213a.191.191 0 01-.27.006l-.007-.006a.19.19 0 01-.046-.208.19.19 0 01.04-.063l8.227-8.578a.191.191 0 01.27-.006l.007.006a.192.192 0 01.006.27l-8.227 8.58zM1.373 5.535a.212.212 0 01-.299.006l-.01-.01a.211.211 0 01-.005-.299l3.063-3.171a.212.212 0 01.3-.006l.009.01a.212.212 0 01.005.299L1.373 5.535z" fill="#F8F5EF" fill-opacity=".5" stroke="#F8F5EF" stroke-opacity=".8" stroke-width=".5"/></svg><svg fill="none" viewBox="0 0 25 24" id="close" xmlns="http://www.w3.org/2000/svg"><path stroke="#F8F5EF" stroke-width="1.095" d="M1.387.613l23 23M.613 23.613l23-23"/></svg><svg fill="none" viewBox="0 0 25 24" id="contacts__close" xmlns="http://www.w3.org/2000/svg"><path stroke="#F8F5EF" stroke-width="1.095" d="M1.387.613l23 23M.613 23.613l23-23"/></svg><svg fill="none" viewBox="0 0 1412 211" id="footer__content__picture" xmlns="http://www.w3.org/2000/svg"><path d="M1360.57 43.63l-104.2 124.681a27.266 27.266 0 00-6.31 17.452c0 13.697 11.09 24.791 24.79 24.791h129.42v-37.08h-98.74c-2.52 0-3.88-2.902-2.26-4.822l101.89-121.48c4.4-5.249 6.83-11.863 6.83-18.69.26-11.563-4.1-20.183-19.93-25.943" fill="url(#hpaint0_linear_1_918)" fill-opacity=".08"/><path d="M1374.05 1.995h-110.72V38.82h83.46" fill="url(#hpaint1_linear_1_918)" fill-opacity=".08"/><path d="M1020.79 1.995h-39.938v208.57h39.938V1.995z" fill="url(#hpaint2_linear_1_918)" fill-opacity=".08"/><path d="M329.078 210.56c-14.294 0-27.778-2.731-40.451-8.235-12.63-5.505-23.724-12.972-33.154-22.402-9.43-9.43-16.897-20.481-22.402-33.154-5.504-12.631-8.235-26.2-8.235-40.707 0-14.508 2.731-27.821 8.235-40.58 5.505-12.758 12.972-23.852 22.402-33.282 9.43-9.43 20.481-16.897 33.154-22.401 12.673-5.505 26.114-8.236 40.451-8.236s28.034 2.774 40.707 8.236c12.63 5.504 23.682 12.971 33.154 22.401 9.43 9.43 16.94 20.524 22.402 33.283 5.504 12.758 8.235 26.284 8.235 40.579 0 14.294-2.773 28.034-8.235 40.707-5.504 12.673-12.972 23.724-22.402 33.154-9.43 9.43-20.481 16.897-33.154 22.402-12.63 5.504-26.242 8.235-40.707 8.235zm.128-173.026c-9.131 0-17.708 1.877-25.644 5.633-7.98 3.754-14.935 8.747-20.866 14.977-5.931 6.23-10.667 13.526-14.124 21.846-3.456 8.364-5.205 17.026-5.205 25.986 0 8.961 1.749 17.879 5.205 26.114 3.499 8.235 8.193 15.532 14.124 21.847 5.931 6.315 12.886 11.35 20.866 15.148 7.979 3.755 16.513 5.632 25.644 5.632 9.131 0 17.708-1.877 25.645-5.632 7.979-3.755 14.891-8.79 20.865-15.148 5.931-6.315 10.668-13.612 14.124-21.847 3.499-8.235 5.205-16.94 5.205-26.114s-1.749-17.665-5.205-25.986c-3.499-8.32-8.193-15.617-14.124-21.846-5.931-6.23-12.886-11.223-20.865-14.977-7.98-3.756-16.514-5.633-25.645-5.633z" fill="url(#hpaint3_linear_1_918)" fill-opacity=".08"/><path d="M1222.19 37.077h-59.6v173.495h-39.94V37.077h-59.95V1.704h159.49v35.373z" fill="url(#hpaint4_linear_1_918)" fill-opacity=".08"/><path d="M618.708 126.205c6.657-6.571 11.692-14.209 15.105-22.956 3.414-8.747 5.121-18.263 5.121-28.546 0-10.284-1.963-19.927-5.846-28.973-3.883-9.003-9.174-16.854-15.83-23.51-6.657-6.657-14.508-11.948-23.554-15.831-9.046-3.883-18.689-5.846-28.93-5.846h-93.02v208.826h39.939V35.873h48.771c6.273 0 11.777 1.153 16.556 3.414 4.736 2.304 8.747 5.248 11.99 8.833 3.243 3.627 5.718 7.766 7.425 12.417 1.707 4.65 2.56 9.387 2.56 14.123 0 4.737-.683 9.302-2.005 13.697-1.323 4.395-3.371 8.278-6.145 11.692-2.773 3.413-6.315 6.144-10.71 8.107-4.395 2.006-9.515 2.987-15.404 2.987h-32.173v35.97h.086c4.352 77.19 96.903 62.213 96.903 62.213v-39.64s-42.969 5.504-51.375-24.194c5.377-.939 10.454-2.219 15.191-3.926 10.155-3.712 18.604-8.832 25.26-15.403" fill="url(#hpaint5_linear_1_918)" fill-opacity=".08"/><path d="M142.688 1.984v89.82H75.525s-38.018-2.049-55.428 14.465C6.443 119.198.725 137.076.171 151.669a.32.32 0 00-.171.043v58.799h39.939v-56.666h.128c0-.64-.086-1.194-.086-1.877 0-24.834 20.269-24.834 29.4-24.834h73.307v83.334h39.938V1.898h-39.938v.086z" fill="url(#hpaint6_linear_1_918)" fill-opacity=".08"/><path d="M39.939 81.062V1.995H0v104.157c2.859-9.43 18.988-23.724 39.939-25.09z" fill="url(#hpaint7_linear_1_918)" fill-opacity=".08"/><path d="M899.305 1.952l-49.54 123.529c-2.133 5.078-6.827 5.078-8.96 0L791.265 1.995h-45.23l88.583 202.297c4.309 8.406 16.342 8.406 20.652 0L943.895 1.995h-44.59v-.043z" fill="url(#hpaint8_linear_1_918)" fill-opacity=".08"/><path d="M828.826 55.417l23.425-53.465h-44.547l-.128.299 21.25 53.166z" fill="url(#hpaint9_linear_1_918)" fill-opacity=".08"/><path d="M770.351 94.887l-12.246 30.551c-2.176 5.078-6.827 5.078-8.96 0L699.605 1.952h-45.23l88.582 202.297c4.31 8.406 16.343 8.406 20.653 0l27.308-62.34-20.567-46.98v-.042z" fill="url(#hpaint10_linear_1_918)" fill-opacity=".08"/><defs><linearGradient id="hpaint0_linear_1_918" x1="1331.03" y1="2.539" x2="1331.03" y2="210.554" gradientUnits="userSpaceOnUse"><stop stop-color="#F8F5EF"/><stop offset="1" stop-color="#F8F5EF" stop-opacity="0"/></linearGradient><linearGradient id="hpaint1_linear_1_918" x1="1318.69" y1="1.995" x2="1318.69" y2="38.819" gradientUnits="userSpaceOnUse"><stop stop-color="#F8F5EF"/><stop offset="1" stop-color="#F8F5EF" stop-opacity="0"/></linearGradient><linearGradient id="hpaint2_linear_1_918" x1="1000.82" y1="1.995" x2="1000.82" y2="210.565" gradientUnits="userSpaceOnUse"><stop stop-color="#F8F5EF"/><stop offset="1" stop-color="#F8F5EF" stop-opacity="0"/></linearGradient><linearGradient id="hpaint3_linear_1_918" x1="329.206" y1="1.563" x2="329.206" y2="210.56" gradientUnits="userSpaceOnUse"><stop stop-color="#F8F5EF"/><stop offset="1" stop-color="#F8F5EF" stop-opacity="0"/></linearGradient><linearGradient id="hpaint4_linear_1_918" x1="1142.45" y1="1.704" x2="1142.45" y2="210.572" gradientUnits="userSpaceOnUse"><stop stop-color="#F8F5EF"/><stop offset="1" stop-color="#F8F5EF" stop-opacity="0"/></linearGradient><linearGradient id="hpaint5_linear_1_918" x1="555.344" y1=".543" x2="555.344" y2="210.497" gradientUnits="userSpaceOnUse"><stop stop-color="#F8F5EF"/><stop offset="1" stop-color="#F8F5EF" stop-opacity="0"/></linearGradient><linearGradient id="hpaint6_linear_1_918" x1="91.313" y1="1.898" x2="91.313" y2="210.511" gradientUnits="userSpaceOnUse"><stop stop-color="#F8F5EF"/><stop offset="1" stop-color="#F8F5EF" stop-opacity="0"/></linearGradient><linearGradient id="hpaint7_linear_1_918" x1="19.969" y1="1.995" x2="19.969" y2="106.152" gradientUnits="userSpaceOnUse"><stop stop-color="#F8F5EF"/><stop offset="1" stop-color="#F8F5EF" stop-opacity="0"/></linearGradient><linearGradient id="hpaint8_linear_1_918" x1="844.965" y1="1.952" x2="844.965" y2="210.597" gradientUnits="userSpaceOnUse"><stop stop-color="#F8F5EF"/><stop offset="1" stop-color="#F8F5EF" stop-opacity="0"/></linearGradient><linearGradient id="hpaint9_linear_1_918" x1="829.914" y1="1.952" x2="829.914" y2="55.417" gradientUnits="userSpaceOnUse"><stop stop-color="#F8F5EF"/><stop offset="1" stop-color="#F8F5EF" stop-opacity="0"/></linearGradient><linearGradient id="hpaint10_linear_1_918" x1="722.647" y1="1.952" x2="722.647" y2="210.554" gradientUnits="userSpaceOnUse"><stop stop-color="#F8F5EF"/><stop offset="1" stop-color="#F8F5EF" stop-opacity="0"/></linearGradient></defs></svg><svg fill="none" viewBox="0 0 49 11" id="hum" xmlns="http://www.w3.org/2000/svg"><path stroke="#F8F5EF" stroke-opacity=".8" d="M48.156.5h-48M48.156 10.5h-35"/></svg><svg fill="none" viewBox="0 0 16 17" id="inst" xmlns="http://www.w3.org/2000/svg"><path fill-rule="evenodd" clip-rule="evenodd" d="M7.857 6.417a1.964 1.964 0 100 3.928 1.964 1.964 0 000-3.928zM4.911 8.38a2.946 2.946 0 115.893 0 2.946 2.946 0 01-5.893 0z" fill="#DEDDDD"/><path fill-rule="evenodd" clip-rule="evenodd" d="M5.156 3.224A2.455 2.455 0 002.701 5.68v5.402c0 1.355 1.1 2.455 2.455 2.455h5.402c1.356 0 2.455-1.1 2.455-2.456V5.68c0-1.356-1.099-2.456-2.455-2.456H5.156zM1.72 5.68a3.437 3.437 0 013.437-3.438h5.402a3.437 3.437 0 013.438 3.438v5.402a3.437 3.437 0 01-3.438 3.437H5.156a3.437 3.437 0 01-3.437-3.438V5.68z" fill="#DEDDDD"/><path d="M11.05 5.925a.737.737 0 100-1.473.737.737 0 000 1.473z" fill="#DEDDDD"/></svg><svg fill="none" viewBox="0 0 45 42" id="logo" xmlns="http://www.w3.org/2000/svg"><path d="M15.078 42l3.463-8.63c.151-.358.477-.355.626 0l3.463 8.628h3.16L19.6 27.862a.81.81 0 00-1.442 0l-6.195 14.136h3.115V42z" fill="#B47950"/><path d="M20.003 38.264L18.366 42h3.115l.01-.022-1.488-3.715zM24.087 35.504l.858-2.135c.15-.357.477-.354.625 0l3.462 8.629h3.16l-6.19-14.136a.81.81 0 00-1.443 0l-1.909 4.357 1.437 3.285zM.96 21.573l9.278.625c.386.034.484.343.192.597l-7.136 5.96.977 3.004 11.532-10.255a.811.811 0 00-.446-1.373L0 18.607l.963 2.964-.002.002z" fill="#B47950"/><path d="M6.036 25.102l-4.06-.403.962 2.963.024.003 3.074-2.563zM9.922 28.135l2.295.156c.386.033.484.342.192.596l-7.137 5.96.978 3.004 11.532-10.255a.81.81 0 00-.446-1.373l-4.733-.47-2.679 2.382h-.002zM16.026 1.835l2.271 9.017c.086.376-.177.567-.508.366L9.915 6.271 7.36 8.128l13.317 7.797a.81.81 0 001.167-.848L18.543 0l-2.52 1.83.003.005z" fill="#B47950"/><path d="M14.236 7.754l-.872-3.986-2.52 1.832.007.022 3.385 2.132zM12.554 12.387l.563 2.23c.086.376-.177.568-.508.367l-7.874-4.947-2.556 1.857 13.317 7.797a.81.81 0 001.167-.848l-1.016-4.647-3.093-1.811v.002zM39.454 10.063L31.58 15.01c-.33.198-.594.007-.506-.37l2.271-9.016-2.556-1.856-3.3 15.074a.81.81 0 001.166.848l13.319-7.795-2.52-1.83v-.002z" fill="#B47950"/><path d="M33.27 10.193l3.522-2.062-2.52-1.83-.02.012-.982 3.88zM28.347 10.022l-1.948 1.224c-.33.199-.594.007-.505-.369l2.271-9.017L25.609.004l-3.301 15.075a.81.81 0 001.167.848l4.105-2.403.767-3.5v-.002zM38.866 34.889l-7.138-5.96c-.293-.254-.19-.563.194-.594l9.277-.628.978-3.004-15.358 1.519a.81.81 0 00-.445 1.372l11.53 10.26.962-2.963v-.002z" fill="#B47950"/><path d="M36.834 29.047l3.05 2.712.962-2.963-.016-.015-3.996.266zM35.473 24.312l-1.766-1.473c-.292-.254-.189-.563.194-.594l9.278-.625.977-3.007L28.8 20.132a.81.81 0 00-.446 1.373l3.555 3.162 3.567-.353-.002-.002z" fill="#B47950"/></svg><svg fill="none" viewBox="0 0 8 11" id="on-up" xmlns="http://www.w3.org/2000/svg"><path d="M4.354.646a.5.5 0 00-.708 0L.464 3.828a.5.5 0 10.708.708L4 1.707l2.828 2.829a.5.5 0 10.708-.708L4.354.646zM4.5 11V1h-1v10h1z" fill="#F8F5EF"/></svg><svg fill="none" viewBox="0 0 10 12" id="projects-page__list__line" xmlns="http://www.w3.org/2000/svg"><path d="M.364 11.966L4.452.346h1.246L1.61 11.966H.364zm4.17 0L8.622.346h1.246L5.78 11.966H4.534z" fill="#F8F5EF" fill-opacity=".4"/></svg><svg fill="none" viewBox="0 0 11 8" id="soc__arrow" xmlns="http://www.w3.org/2000/svg"><path d="M10.354 4.354a.5.5 0 000-.708L7.172.464a.5.5 0 10-.708.708L9.293 4 6.464 6.828a.5.5 0 10.708.708l3.182-3.182zM0 4.5h10v-1H0v1z" fill="#F8F5EF" fill-opacity=".6"/></svg><svg fill="none" viewBox="0 0 130.614 878" id="start-main--bg" xmlns="http://www.w3.org/2000/svg"><path d="M26.792 31.979l77.528 64.79a16.928 16.928 0 0010.852 3.928c8.517 0 15.415-6.898 15.415-15.416V4.81h-23.056v61.396c0 1.564-1.805 2.414-2.999 1.406L28.994 4.251A18.11 18.11 0 0017.373.007c-7.19-.158-12.55 2.547-16.132 12.39l25.55 19.582zM.904 23.596v68.851h22.898V40.55L.904 23.596zM.904 268.092v-24.834h129.691v24.834H.905zM130.591 673.377c0 8.887-1.698 17.271-5.121 25.152-3.422 7.854-8.066 14.752-13.929 20.616-5.864 5.863-12.736 10.507-20.616 13.929-7.854 3.424-16.291 5.121-25.313 5.121-9.02 0-17.298-1.697-25.232-5.121-7.933-3.422-14.832-8.066-20.695-13.929-5.864-5.864-10.507-12.735-13.93-20.616s-5.12-16.238-5.12-25.152c0-8.916 1.724-17.434 5.12-25.313 3.423-7.853 8.066-14.726 13.93-20.617 5.863-5.863 12.762-10.533 20.695-13.929 7.933-3.422 16.344-5.12 25.232-5.12 8.889 0 17.433 1.725 25.313 5.12 7.88 3.423 14.752 8.066 20.616 13.929 5.863 5.865 10.507 12.737 13.929 20.617 3.423 7.854 5.121 16.317 5.121 25.313zm-107.59-.08c0 5.678 1.168 11.01 3.503 15.945 2.334 4.963 5.439 9.287 9.313 12.975 3.873 3.687 8.41 6.633 13.584 8.783 5.2 2.148 10.587 3.236 16.159 3.236 5.571 0 11.117-1.088 16.238-3.236 5.12-2.176 9.657-5.096 13.584-8.783 3.927-3.688 7.058-8.012 9.419-12.975 2.335-4.961 3.503-10.267 3.503-15.945 0-5.678-1.168-11.012-3.503-15.947a42.335 42.335 0 00-9.419-12.975c-3.927-3.687-8.464-6.633-13.584-8.781-5.121-2.176-10.534-3.237-16.238-3.237-5.705 0-10.985 1.088-16.159 3.237-5.174 2.176-9.71 5.094-13.584 8.781-3.874 3.689-6.979 8.014-9.313 12.975C24.169 662.312 23 667.619 23 673.297zM22.717 118.023v37.067H130.6v24.836H22.717v37.277H.722v-99.18h21.995zM78.138 493.279a40.552 40.552 0 00-14.274-9.392c-5.44-2.121-11.356-3.184-17.75-3.184-6.395 0-12.391 1.221-18.016 3.635-5.598 2.414-10.48 5.705-14.62 9.844-4.139 4.138-7.429 9.021-9.843 14.646C1.22 514.453 0 520.449 0 526.816v57.842h129.851v-24.834H21.969v-30.328c0-3.9.716-7.322 2.123-10.293 1.432-2.945 3.263-5.439 5.492-7.457a23.765 23.765 0 017.72-4.617c2.893-1.061 5.838-1.592 8.783-1.592 2.945 0 5.784.426 8.517 1.248 2.733.822 5.148 2.096 7.27 3.82 2.123 1.725 3.82 3.928 5.041 6.661 1.247 2.732 1.857 5.916 1.857 9.578v20.006H91.14v-.053c47.998-2.707 38.685-60.256 38.685-60.256h-24.649s3.423 26.719-15.044 31.945c-.583-3.343-1.38-6.502-2.44-9.445-2.31-6.316-5.493-11.568-9.579-15.709l.026-.053zM.898 789.275h55.85v41.762s-1.273 23.641 8.995 34.467c8.04 8.49 19.157 12.045 28.231 12.391A.2.2 0 0094 878h36.562v-24.834H95.327v-.08c-.398 0-.743.053-1.167.053-15.442 0-15.442-12.604-15.442-18.282v-45.582h51.818v-24.836H.844v24.836h.054zM50.07 853.166H.903V878H65.67c-5.864-1.777-14.752-11.807-15.6-24.834zM.876 318.799l76.812 30.805c3.158 1.326 3.158 4.244 0 5.57L.903 385.979v28.125l125.791-55.083c5.227-2.679 5.227-10.162 0-12.841L.903 291.072v27.727H.876z" fill="#131719" fill-rule="evenodd"/><path d="M34.122 362.627L.876 348.061v27.699l.186.08 33.06-13.213zM58.664 398.982l18.998 7.616c3.157 1.351 3.157 4.244 0 5.57L.876 442.973v28.125l125.791-55.082c5.227-2.68 5.227-10.162 0-12.842l-38.764-16.981-29.212 12.789h-.027z" fill="#131719" fill-rule="evenodd"/></svg><svg fill="none" viewBox="0 0 17 17" id="team-list__btn" xmlns="http://www.w3.org/2000/svg"><path d="M.995 4.635L11.71 16.316.995 4.636z" fill="#0D0D0D"/><path d="M.995 4.635L11.71 16.316M11.881 16.363l.153-9.842" stroke="#F8F5EF" stroke-width=".906" stroke-linecap="round" stroke-linejoin="round"/></svg><svg fill="none" viewBox="0 0 16 15" id="telega" xmlns="http://www.w3.org/2000/svg"><path d="M13.158 1.858L2.605 5.928c-.72.289-.716.69-.132.87l2.71.845 6.268-3.955c.297-.18.568-.084.345.114l-5.08 4.583h-.001l.001.001-.187 2.793c.274 0 .395-.125.548-.274l1.317-1.28 2.737 2.023c.505.278.867.135.993-.468l1.797-8.469c.184-.738-.281-1.071-.763-.853z" fill="#DEDDDD"/></svg></svg>